<?xml version="1.0" encoding="utf-8"?>
<!-- Generator: Adobe Illustrator 23.0.4, SVG Export Plug-In . SVG Version: 6.00 Build 0)  -->
<svg version="1.1" id="bar-frame" xmlns="http://www.w3.org/2000/svg" xmlns:xlink="http://www.w3.org/1999/xlink" x="0px" y="0px"
	 viewBox="0 0 331.7 369.9" style="enable-background:new 0 0 331.7 369.9;" xml:space="preserve">
<style type="text/css">
	.frame-color{fill:#000000;}
	.background-color{fill:#ffffff;}
	.text-color{fill:#FFFFFF;}
	.shadow-35{opacity:0.35;fill:#FFFFFF;}
</style>
	
<svg xmlns="http://www.w3.org/2000/svg" xmlns:xlink="http://www.w3.org/1999/xlink" version="1.1" width="259.8" height="259.8" viewBox="0 0 2000 2000" x="36.8" y="10.8" shape-rendering="crispEdges"><defs/><rect x="0" y="0" width="2000" height="2000" fill="#ffffff"/><rect x="629" y="173" width="57" height="57" fill="#000000"/><rect x="743" y="173" width="57" height="57" fill="#000000"/><rect x="914" y="173" width="57" height="57" fill="#000000"/><rect x="1028" y="173" width="57" height="57" fill="#000000"/><rect x="1199" y="173" width="57" height="57" fill="#000000"/><rect x="1313" y="173" width="57" height="57" fill="#000000"/><rect x="629" y="230" width="57" height="57" fill="#000000"/><rect x="971" y="230" width="57" height="57" fill="#000000"/><rect x="1028" y="230" width="57" height="57" fill="#000000"/><rect x="1085" y="230" width="57" height="57" fill="#000000"/><rect x="1142" y="230" width="57" height="57" fill="#000000"/><rect x="1313" y="230" width="57" height="57" fill="#000000"/><rect x="629" y="287" width="57" height="57" fill="#000000"/><rect x="686" y="287" width="57" height="57" fill="#000000"/><rect x="857" y="287" width="57" height="57" fill="#000000"/><rect x="914" y="287" width="57" height="57" fill="#000000"/><rect x="1085" y="287" width="57" height="57" fill="#000000"/><rect x="1313" y="287" width="57" height="57" fill="#000000"/><rect x="743" y="344" width="57" height="57" fill="#000000"/><rect x="914" y="344" width="57" height="57" fill="#000000"/><rect x="971" y="344" width="57" height="57" fill="#000000"/><rect x="1142" y="344" width="57" height="57" fill="#000000"/><rect x="1199" y="344" width="57" height="57" fill="#000000"/><rect x="1313" y="344" width="57" height="57" fill="#000000"/><rect x="743" y="401" width="57" height="57" fill="#000000"/><rect x="857" y="401" width="57" height="57" fill="#000000"/><rect x="914" y="401" width="57" height="57" fill="#000000"/><rect x="1199" y="401" width="57" height="57" fill="#000000"/><rect x="629" y="458" width="57" height="57" fill="#000000"/><rect x="857" y="458" width="57" height="57" fill="#000000"/><rect x="971" y="458" width="57" height="57" fill="#000000"/><rect x="1028" y="458" width="57" height="57" fill="#000000"/><rect x="1199" y="458" width="57" height="57" fill="#000000"/><rect x="1313" y="458" width="57" height="57" fill="#000000"/><rect x="629" y="515" width="57" height="57" fill="#000000"/><rect x="743" y="515" width="57" height="57" fill="#000000"/><rect x="857" y="515" width="57" height="57" fill="#000000"/><rect x="971" y="515" width="57" height="57" fill="#000000"/><rect x="1085" y="515" width="57" height="57" fill="#000000"/><rect x="1199" y="515" width="57" height="57" fill="#000000"/><rect x="1313" y="515" width="57" height="57" fill="#000000"/><rect x="629" y="572" width="57" height="57" fill="#000000"/><rect x="914" y="572" width="57" height="57" fill="#000000"/><rect x="1028" y="572" width="57" height="57" fill="#000000"/><rect x="1085" y="572" width="57" height="57" fill="#000000"/><rect x="1199" y="572" width="57" height="57" fill="#000000"/><rect x="1256" y="572" width="57" height="57" fill="#000000"/><rect x="1313" y="572" width="57" height="57" fill="#000000"/><rect x="287" y="629" width="57" height="57" fill="#000000"/><rect x="344" y="629" width="57" height="57" fill="#000000"/><rect x="401" y="629" width="57" height="57" fill="#000000"/><rect x="515" y="629" width="57" height="57" fill="#000000"/><rect x="629" y="629" width="57" height="57" fill="#000000"/><rect x="743" y="629" width="57" height="57" fill="#000000"/><rect x="800" y="629" width="57" height="57" fill="#000000"/><rect x="857" y="629" width="57" height="57" fill="#000000"/><rect x="914" y="629" width="57" height="57" fill="#000000"/><rect x="1199" y="629" width="57" height="57" fill="#000000"/><rect x="1313" y="629" width="57" height="57" fill="#000000"/><rect x="1370" y="629" width="57" height="57" fill="#000000"/><rect x="1427" y="629" width="57" height="57" fill="#000000"/><rect x="1484" y="629" width="57" height="57" fill="#000000"/><rect x="1655" y="629" width="57" height="57" fill="#000000"/><rect x="1712" y="629" width="57" height="57" fill="#000000"/><rect x="1769" y="629" width="57" height="57" fill="#000000"/><rect x="173" y="686" width="57" height="57" fill="#000000"/><rect x="230" y="686" width="57" height="57" fill="#000000"/><rect x="287" y="686" width="57" height="57" fill="#000000"/><rect x="344" y="686" width="57" height="57" fill="#000000"/><rect x="401" y="686" width="57" height="57" fill="#000000"/><rect x="572" y="686" width="57" height="57" fill="#000000"/><rect x="1370" y="686" width="57" height="57" fill="#000000"/><rect x="1427" y="686" width="57" height="57" fill="#000000"/><rect x="1541" y="686" width="57" height="57" fill="#000000"/><rect x="1712" y="686" width="57" height="57" fill="#000000"/><rect x="1769" y="686" width="57" height="57" fill="#000000"/><rect x="230" y="743" width="57" height="57" fill="#000000"/><rect x="401" y="743" width="57" height="57" fill="#000000"/><rect x="458" y="743" width="57" height="57" fill="#000000"/><rect x="515" y="743" width="57" height="57" fill="#000000"/><rect x="572" y="743" width="57" height="57" fill="#000000"/><rect x="1313" y="743" width="57" height="57" fill="#000000"/><rect x="1655" y="743" width="57" height="57" fill="#000000"/><rect x="344" y="800" width="57" height="57" fill="#000000"/><rect x="401" y="800" width="57" height="57" fill="#000000"/><rect x="458" y="800" width="57" height="57" fill="#000000"/><rect x="572" y="800" width="57" height="57" fill="#000000"/><rect x="629" y="800" width="57" height="57" fill="#000000"/><rect x="1427" y="800" width="57" height="57" fill="#000000"/><rect x="1484" y="800" width="57" height="57" fill="#000000"/><rect x="1541" y="800" width="57" height="57" fill="#000000"/><rect x="1598" y="800" width="57" height="57" fill="#000000"/><rect x="1655" y="800" width="57" height="57" fill="#000000"/><rect x="173" y="857" width="57" height="57" fill="#000000"/><rect x="230" y="857" width="57" height="57" fill="#000000"/><rect x="287" y="857" width="57" height="57" fill="#000000"/><rect x="458" y="857" width="57" height="57" fill="#000000"/><rect x="515" y="857" width="57" height="57" fill="#000000"/><rect x="1313" y="857" width="57" height="57" fill="#000000"/><rect x="1370" y="857" width="57" height="57" fill="#000000"/><rect x="1541" y="857" width="57" height="57" fill="#000000"/><rect x="1655" y="857" width="57" height="57" fill="#000000"/><rect x="1712" y="857" width="57" height="57" fill="#000000"/><rect x="572" y="914" width="57" height="57" fill="#000000"/><rect x="629" y="914" width="57" height="57" fill="#000000"/><rect x="1313" y="914" width="57" height="57" fill="#000000"/><rect x="1427" y="914" width="57" height="57" fill="#000000"/><rect x="1541" y="914" width="57" height="57" fill="#000000"/><rect x="1598" y="914" width="57" height="57" fill="#000000"/><rect x="1769" y="914" width="57" height="57" fill="#000000"/><rect x="173" y="971" width="57" height="57" fill="#000000"/><rect x="344" y="971" width="57" height="57" fill="#000000"/><rect x="401" y="971" width="57" height="57" fill="#000000"/><rect x="458" y="971" width="57" height="57" fill="#000000"/><rect x="515" y="971" width="57" height="57" fill="#000000"/><rect x="572" y="971" width="57" height="57" fill="#000000"/><rect x="629" y="971" width="57" height="57" fill="#000000"/><rect x="1484" y="971" width="57" height="57" fill="#000000"/><rect x="1655" y="971" width="57" height="57" fill="#000000"/><rect x="1769" y="971" width="57" height="57" fill="#000000"/><rect x="173" y="1028" width="57" height="57" fill="#000000"/><rect x="230" y="1028" width="57" height="57" fill="#000000"/><rect x="287" y="1028" width="57" height="57" fill="#000000"/><rect x="458" y="1028" width="57" height="57" fill="#000000"/><rect x="572" y="1028" width="57" height="57" fill="#000000"/><rect x="1370" y="1028" width="57" height="57" fill="#000000"/><rect x="1427" y="1028" width="57" height="57" fill="#000000"/><rect x="1484" y="1028" width="57" height="57" fill="#000000"/><rect x="1541" y="1028" width="57" height="57" fill="#000000"/><rect x="1655" y="1028" width="57" height="57" fill="#000000"/><rect x="1712" y="1028" width="57" height="57" fill="#000000"/><rect x="1769" y="1028" width="57" height="57" fill="#000000"/><rect x="173" y="1085" width="57" height="57" fill="#000000"/><rect x="344" y="1085" width="57" height="57" fill="#000000"/><rect x="515" y="1085" width="57" height="57" fill="#000000"/><rect x="572" y="1085" width="57" height="57" fill="#000000"/><rect x="629" y="1085" width="57" height="57" fill="#000000"/><rect x="1484" y="1085" width="57" height="57" fill="#000000"/><rect x="173" y="1142" width="57" height="57" fill="#000000"/><rect x="572" y="1142" width="57" height="57" fill="#000000"/><rect x="1313" y="1142" width="57" height="57" fill="#000000"/><rect x="1484" y="1142" width="57" height="57" fill="#000000"/><rect x="1598" y="1142" width="57" height="57" fill="#000000"/><rect x="1712" y="1142" width="57" height="57" fill="#000000"/><rect x="173" y="1199" width="57" height="57" fill="#000000"/><rect x="287" y="1199" width="57" height="57" fill="#000000"/><rect x="344" y="1199" width="57" height="57" fill="#000000"/><rect x="401" y="1199" width="57" height="57" fill="#000000"/><rect x="515" y="1199" width="57" height="57" fill="#000000"/><rect x="572" y="1199" width="57" height="57" fill="#000000"/><rect x="629" y="1199" width="57" height="57" fill="#000000"/><rect x="1313" y="1199" width="57" height="57" fill="#000000"/><rect x="1370" y="1199" width="57" height="57" fill="#000000"/><rect x="1655" y="1199" width="57" height="57" fill="#000000"/><rect x="173" y="1256" width="57" height="57" fill="#000000"/><rect x="287" y="1256" width="57" height="57" fill="#000000"/><rect x="344" y="1256" width="57" height="57" fill="#000000"/><rect x="458" y="1256" width="57" height="57" fill="#000000"/><rect x="572" y="1256" width="57" height="57" fill="#000000"/><rect x="1313" y="1256" width="57" height="57" fill="#000000"/><rect x="1427" y="1256" width="57" height="57" fill="#000000"/><rect x="1541" y="1256" width="57" height="57" fill="#000000"/><rect x="1598" y="1256" width="57" height="57" fill="#000000"/><rect x="1712" y="1256" width="57" height="57" fill="#000000"/><rect x="1769" y="1256" width="57" height="57" fill="#000000"/><rect x="173" y="1313" width="57" height="57" fill="#000000"/><rect x="287" y="1313" width="57" height="57" fill="#000000"/><rect x="344" y="1313" width="57" height="57" fill="#000000"/><rect x="515" y="1313" width="57" height="57" fill="#000000"/><rect x="572" y="1313" width="57" height="57" fill="#000000"/><rect x="857" y="1313" width="57" height="57" fill="#000000"/><rect x="914" y="1313" width="57" height="57" fill="#000000"/><rect x="1028" y="1313" width="57" height="57" fill="#000000"/><rect x="1199" y="1313" width="57" height="57" fill="#000000"/><rect x="1313" y="1313" width="57" height="57" fill="#000000"/><rect x="1370" y="1313" width="57" height="57" fill="#000000"/><rect x="1427" y="1313" width="57" height="57" fill="#000000"/><rect x="1484" y="1313" width="57" height="57" fill="#000000"/><rect x="1541" y="1313" width="57" height="57" fill="#000000"/><rect x="1712" y="1313" width="57" height="57" fill="#000000"/><rect x="1769" y="1313" width="57" height="57" fill="#000000"/><rect x="629" y="1370" width="57" height="57" fill="#000000"/><rect x="857" y="1370" width="57" height="57" fill="#000000"/><rect x="914" y="1370" width="57" height="57" fill="#000000"/><rect x="971" y="1370" width="57" height="57" fill="#000000"/><rect x="1028" y="1370" width="57" height="57" fill="#000000"/><rect x="1085" y="1370" width="57" height="57" fill="#000000"/><rect x="1199" y="1370" width="57" height="57" fill="#000000"/><rect x="1256" y="1370" width="57" height="57" fill="#000000"/><rect x="1313" y="1370" width="57" height="57" fill="#000000"/><rect x="1541" y="1370" width="57" height="57" fill="#000000"/><rect x="1598" y="1370" width="57" height="57" fill="#000000"/><rect x="1769" y="1370" width="57" height="57" fill="#000000"/><rect x="686" y="1427" width="57" height="57" fill="#000000"/><rect x="743" y="1427" width="57" height="57" fill="#000000"/><rect x="971" y="1427" width="57" height="57" fill="#000000"/><rect x="1142" y="1427" width="57" height="57" fill="#000000"/><rect x="1256" y="1427" width="57" height="57" fill="#000000"/><rect x="1313" y="1427" width="57" height="57" fill="#000000"/><rect x="1427" y="1427" width="57" height="57" fill="#000000"/><rect x="1541" y="1427" width="57" height="57" fill="#000000"/><rect x="1598" y="1427" width="57" height="57" fill="#000000"/><rect x="1655" y="1427" width="57" height="57" fill="#000000"/><rect x="1712" y="1427" width="57" height="57" fill="#000000"/><rect x="686" y="1484" width="57" height="57" fill="#000000"/><rect x="971" y="1484" width="57" height="57" fill="#000000"/><rect x="1142" y="1484" width="57" height="57" fill="#000000"/><rect x="1199" y="1484" width="57" height="57" fill="#000000"/><rect x="1256" y="1484" width="57" height="57" fill="#000000"/><rect x="1313" y="1484" width="57" height="57" fill="#000000"/><rect x="1541" y="1484" width="57" height="57" fill="#000000"/><rect x="1598" y="1484" width="57" height="57" fill="#000000"/><rect x="1712" y="1484" width="57" height="57" fill="#000000"/><rect x="1769" y="1484" width="57" height="57" fill="#000000"/><rect x="629" y="1541" width="57" height="57" fill="#000000"/><rect x="800" y="1541" width="57" height="57" fill="#000000"/><rect x="857" y="1541" width="57" height="57" fill="#000000"/><rect x="914" y="1541" width="57" height="57" fill="#000000"/><rect x="1028" y="1541" width="57" height="57" fill="#000000"/><rect x="1085" y="1541" width="57" height="57" fill="#000000"/><rect x="1142" y="1541" width="57" height="57" fill="#000000"/><rect x="1256" y="1541" width="57" height="57" fill="#000000"/><rect x="1313" y="1541" width="57" height="57" fill="#000000"/><rect x="1370" y="1541" width="57" height="57" fill="#000000"/><rect x="1427" y="1541" width="57" height="57" fill="#000000"/><rect x="1484" y="1541" width="57" height="57" fill="#000000"/><rect x="1541" y="1541" width="57" height="57" fill="#000000"/><rect x="629" y="1598" width="57" height="57" fill="#000000"/><rect x="686" y="1598" width="57" height="57" fill="#000000"/><rect x="800" y="1598" width="57" height="57" fill="#000000"/><rect x="857" y="1598" width="57" height="57" fill="#000000"/><rect x="914" y="1598" width="57" height="57" fill="#000000"/><rect x="971" y="1598" width="57" height="57" fill="#000000"/><rect x="1142" y="1598" width="57" height="57" fill="#000000"/><rect x="1313" y="1598" width="57" height="57" fill="#000000"/><rect x="1370" y="1598" width="57" height="57" fill="#000000"/><rect x="1427" y="1598" width="57" height="57" fill="#000000"/><rect x="1541" y="1598" width="57" height="57" fill="#000000"/><rect x="1598" y="1598" width="57" height="57" fill="#000000"/><rect x="629" y="1655" width="57" height="57" fill="#000000"/><rect x="686" y="1655" width="57" height="57" fill="#000000"/><rect x="800" y="1655" width="57" height="57" fill="#000000"/><rect x="857" y="1655" width="57" height="57" fill="#000000"/><rect x="914" y="1655" width="57" height="57" fill="#000000"/><rect x="971" y="1655" width="57" height="57" fill="#000000"/><rect x="1028" y="1655" width="57" height="57" fill="#000000"/><rect x="1085" y="1655" width="57" height="57" fill="#000000"/><rect x="1142" y="1655" width="57" height="57" fill="#000000"/><rect x="1199" y="1655" width="57" height="57" fill="#000000"/><rect x="1370" y="1655" width="57" height="57" fill="#000000"/><rect x="1427" y="1655" width="57" height="57" fill="#000000"/><rect x="1484" y="1655" width="57" height="57" fill="#000000"/><rect x="1541" y="1655" width="57" height="57" fill="#000000"/><rect x="1655" y="1655" width="57" height="57" fill="#000000"/><rect x="1712" y="1655" width="57" height="57" fill="#000000"/><rect x="686" y="1712" width="57" height="57" fill="#000000"/><rect x="857" y="1712" width="57" height="57" fill="#000000"/><rect x="971" y="1712" width="57" height="57" fill="#000000"/><rect x="1085" y="1712" width="57" height="57" fill="#000000"/><rect x="1142" y="1712" width="57" height="57" fill="#000000"/><rect x="1199" y="1712" width="57" height="57" fill="#000000"/><rect x="1256" y="1712" width="57" height="57" fill="#000000"/><rect x="1313" y="1712" width="57" height="57" fill="#000000"/><rect x="1484" y="1712" width="57" height="57" fill="#000000"/><rect x="1598" y="1712" width="57" height="57" fill="#000000"/><rect x="1769" y="1712" width="57" height="57" fill="#000000"/><rect x="743" y="1769" width="57" height="57" fill="#000000"/><rect x="971" y="1769" width="57" height="57" fill="#000000"/><rect x="1142" y="1769" width="57" height="57" fill="#000000"/><rect x="1199" y="1769" width="57" height="57" fill="#000000"/><rect x="1370" y="1769" width="57" height="57" fill="#000000"/><rect x="1427" y="1769" width="57" height="57" fill="#000000"/><rect x="1484" y="1769" width="57" height="57" fill="#000000"/><rect x="1541" y="1769" width="57" height="57" fill="#000000"/><rect x="1598" y="1769" width="57" height="57" fill="#000000"/><svg version="1.1" id="Ebene_1" x="173" y="173" viewBox="0 0 700 700" style="enable-background:new 0 0 700 700;" xml:space="preserve" width="399" height="399" shape-rendering="auto">

<path fill="#000000" d="M21.2-0.1C9.5-0.1-0.1,9.5-0.1,21.2v78.8v100v100v100v100v100v78.8c0,11.7,9.5,21.3,21.3,21.3h657.6  c11.7,0,21.3-9.5,21.3-21.3V600V500V400V300V200v-100V21.2c0-11.7-9.5-21.3-21.3-21.3H21.2z M600,200v100v100v100v87.8  c0,6.8-5.5,12.2-12.2,12.2H112.2c-6.8,0-12.2-5.5-12.2-12.2V500V400V300V200v-87.8c0-6.8,5.5-12.2,12.2-12.2h475.6  c6.8,0,12.2,5.5,12.2,12.2V200z"/>
</svg>
<svg version="1.1" id="Ebene_1" x="173" y="173" viewBox="0 0 700 700" style="enable-background:new 0 0 700 700;" xml:space="preserve" width="399" height="399" shape-rendering="auto">

<path fill="#000000" d="M500,400V300v-78.8c0-11.7-9.5-21.3-21.3-21.3H221.2c-11.7,0-21.3,9.5-21.3,21.3V300v100v78.8    c0,11.7,9.5,21.3,21.3,21.3h257.5c11.7,0,21.3-9.5,21.3-21.3V400z"/>
</svg>
<svg version="1.1" id="Ebene_1" x="1427" y="173" viewBox="0 0 700 700" style="enable-background:new 0 0 700 700;" xml:space="preserve" width="399" height="399" shape-rendering="auto">

<path fill="#000000" d="M21.2-0.1C9.5-0.1-0.1,9.5-0.1,21.2v78.8v100v100v100v100v100v78.8c0,11.7,9.5,21.3,21.3,21.3h657.6  c11.7,0,21.3-9.5,21.3-21.3V600V500V400V300V200v-100V21.2c0-11.7-9.5-21.3-21.3-21.3H21.2z M600,200v100v100v100v87.8  c0,6.8-5.5,12.2-12.2,12.2H112.2c-6.8,0-12.2-5.5-12.2-12.2V500V400V300V200v-87.8c0-6.8,5.5-12.2,12.2-12.2h475.6  c6.8,0,12.2,5.5,12.2,12.2V200z"/>
</svg>
<svg version="1.1" id="Ebene_1" x="1427" y="173" viewBox="0 0 700 700" style="enable-background:new 0 0 700 700;" xml:space="preserve" width="399" height="399" shape-rendering="auto">

<path fill="#000000" d="M500,400V300v-78.8c0-11.7-9.5-21.3-21.3-21.3H221.2c-11.7,0-21.3,9.5-21.3,21.3V300v100v78.8    c0,11.7,9.5,21.3,21.3,21.3h257.5c11.7,0,21.3-9.5,21.3-21.3V400z"/>
</svg>
<svg version="1.1" id="Ebene_1" x="173" y="1427" viewBox="0 0 700 700" style="enable-background:new 0 0 700 700;" xml:space="preserve" width="399" height="399" shape-rendering="auto">

<path fill="#000000" d="M21.2-0.1C9.5-0.1-0.1,9.5-0.1,21.2v78.8v100v100v100v100v100v78.8c0,11.7,9.5,21.3,21.3,21.3h657.6  c11.7,0,21.3-9.5,21.3-21.3V600V500V400V300V200v-100V21.2c0-11.7-9.5-21.3-21.3-21.3H21.2z M600,200v100v100v100v87.8  c0,6.8-5.5,12.2-12.2,12.2H112.2c-6.8,0-12.2-5.5-12.2-12.2V500V400V300V200v-87.8c0-6.8,5.5-12.2,12.2-12.2h475.6  c6.8,0,12.2,5.5,12.2,12.2V200z"/>
</svg>
<svg version="1.1" id="Ebene_1" x="173" y="1427" viewBox="0 0 700 700" style="enable-background:new 0 0 700 700;" xml:space="preserve" width="399" height="399" shape-rendering="auto">

<path fill="#000000" d="M500,400V300v-78.8c0-11.7-9.5-21.3-21.3-21.3H221.2c-11.7,0-21.3,9.5-21.3,21.3V300v100v78.8    c0,11.7,9.5,21.3,21.3,21.3h257.5c11.7,0,21.3-9.5,21.3-21.3V400z"/>
</svg>
<svg version="1.0" id="Layer_1" x="714" y="714" viewBox="0 0 700 700" enable-background="new 0 0 700 700" xml:space="preserve" width="570" height="570" shape-rendering="auto">
<g>
	<g>
		<polygon fill="#000000" points="115.7,584.3 115.7,414.3 87.5,414.3 87.5,584.3 87.5,612.5 115.7,612.5 285.7,612.5 285.7,584.3       "/>
		<polygon fill="#000000" points="115.7,115.7 285.7,115.7 285.7,87.5 115.7,87.5 87.5,87.5 87.5,115.7 87.5,285.7 115.7,285.7       "/>
		<polygon fill="#000000" points="584.3,115.7 584.3,285.7 612.5,285.7 612.5,115.7 612.5,87.5 584.3,87.5 414.3,87.5 414.3,115.7       "/>
		<polygon fill="#000000" points="584.3,584.3 414.3,584.3 414.3,612.5 584.3,612.5 612.5,612.5 612.5,584.3 612.5,414.3     584.3,414.3   "/>
		<g>
			<path fill="#000000" d="M246.1,274c0-3.3-1.2-6-3.6-8.1c-2.4-2-6.5-3.9-12.5-5.7c-10.4-3-18.2-6.5-23.5-10.6     c-5.3-4.1-7.9-9.7-7.9-16.8s3-13,9.1-17.5c6.1-4.5,13.8-6.8,23.3-6.8c9.6,0,17.3,2.5,23.4,7.6c6,5.1,8.9,11.3,8.7,18.8l-0.1,0.4     h-16.9c0-4-1.3-7.3-4-9.8c-2.7-2.5-6.5-3.7-11.3-3.7c-4.7,0-8.3,1-10.8,3.1s-3.8,4.7-3.8,7.9c0,2.9,1.4,5.4,4.1,7.3     c2.7,1.9,7.4,3.9,14.1,6c9.6,2.7,16.9,6.2,21.8,10.6c4.9,4.4,7.4,10.1,7.4,17.3c0,7.4-2.9,13.3-8.8,17.6     c-5.9,4.3-13.6,6.5-23.3,6.5c-9.5,0-17.7-2.4-24.8-7.3c-7.1-4.9-10.5-11.7-10.3-20.5l0.1-0.4h17c0,5.2,1.6,9,4.7,11.4     c3.2,2.4,7.6,3.6,13.2,3.6c4.7,0,8.4-1,10.9-2.9C244.9,279.9,246.1,277.3,246.1,274z"/>
			<path fill="#000000" d="M342.4,267.1l0.1,0.4c0.2,9.4-2.7,16.8-8.6,22.3c-5.9,5.5-14,8.2-24.5,8.2c-10.5,0-19-3.4-25.5-10.1     s-9.8-15.4-9.8-26v-17.3c0-10.6,3.2-19.2,9.6-26c6.4-6.8,14.7-10.2,24.9-10.2c10.8,0,19.2,2.8,25.2,8.3c6.1,5.5,9,13,8.8,22.6     l-0.1,0.4h-17c0-5.7-1.4-10.1-4.1-13.2c-2.7-3.1-7-4.6-12.8-4.6c-5.2,0-9.4,2.1-12.4,6.4c-3.1,4.2-4.6,9.6-4.6,16.2v17.4     c0,6.6,1.6,12.1,4.8,16.3c3.2,4.2,7.6,6.4,13.1,6.4c5.5,0,9.5-1.5,12.1-4.4c2.6-2.9,3.9-7.3,3.9-13.1H342.4z"/>
			<path fill="#000000" d="M401.6,278h-30.5l-5.9,18.8h-17.6l29.9-87h17.9l29.8,87h-17.6L401.6,278z M375.4,264.3h21.9l-10.8-34.2     h-0.4L375.4,264.3z"/>
			<path fill="#000000" d="M503.6,296.7h-17.4l-35.1-59.4l-0.4,0.1v59.4h-17.4v-87h17.4l35.1,59.4l0.4-0.1v-59.3h17.4V296.7z"/>
		</g>
		<g>
			<path fill="#000000" d="M224.4,329.3l51.6,131.6h0.7l51.6-131.6h28v162h-21.9v-64.1l2.2-65.9l-0.6-0.1l-52.5,130.1h-14.6     l-52.3-129.8l-0.6,0.1l2.1,65.5v64.1h-21.9v-162H224.4z"/>
			<path fill="#000000" d="M492.7,416.2h-74.2v57.9h85.6v17.2H396.6v-162h106.3v17.2h-84.4V399h74.2V416.2z"/>
		</g>
	</g>
</g>
</svg>
</svg>

	<path id="FrameBody" class="frame-color" d="M319.6,290.1h-14.3V14.9c0-7.5-6.1-13.7-13.7-13.7H40c-7.5,0-13.7,6.1-13.7,13.7v275.2H12.1
	c-6.7,0-12.1,5.4-12.1,12.1v55.6c0,6.7,5.4,12.1,12.1,12.1h307.5c6.7,0,12.1-5.4,12.1-12.1v-55.6
	C331.7,295.5,326.3,290.1,319.6,290.1z M294.8,262.3c0,4.1-3.3,7.4-7.3,7.4H44.2c-4.1,0-7.4-3.3-7.4-7.4V19.1c0-4.1,3.3-7.4,7.4-7.4
	h243.2c4.1,0,7.4,3.3,7.4,7.4V262.3z"/>
	<rect id="ShadowDarker" x="26.3" y="280.2" class="shadow-35" width="279" height="9.9"/>
	<svg id="TextArea" x="10" y="295" width="310" height="70" viewBox="0 0 53.044921875 17.588541666667" preserveAspectRatio="xMidYMid meet">
<svg version="1.1" xmlns="http://www.w3.org/2000/svg"><path class="text-color" fill="#FFFFFF" d=" M8.37890625,11.09130859375q0,1.02587890625-0.7412109375,1.61669921875t-2.0625,0.5908203125q-1.396484375,0-2.1591796875-0.37060546875l0-0.9453125q0.49951171875,0.21484375,1.093017578125,0.33837890625t1.109130859375,0.12353515625q0.880859375,0,1.32666015625-0.33837890625t0.44580078125-0.92919921875q0-0.39208984375-0.1611328125-0.64453125t-0.539794921875-0.47265625t-1.146728515625-0.49951171875q-1.09033203125-0.3974609375-1.5576171875-0.937255859375t-0.46728515625-1.393798828125q0-0.91845703125,0.690185546875-1.4609375t1.818115234375-0.54248046875q1.17626953125,0,2.16455078125,0.4404296875l-0.30615234375,0.8486328125q-1.009765625-0.4189453125-1.8798828125-0.4189453125q-0.6982421875,0-1.093017578125,0.30078125t-0.394775390625,0.84326171875q0,0.38671875,0.153076171875,0.641845703125t0.494140625,0.464599609375t1.071533203125,0.47802734375q0.87548828125,0.322265625,1.30517578125,0.625732421875t0.6337890625,0.6982421875t0.2041015625,0.942626953125z M13.32568359375,6.09619140625q-1.267578125,0-1.99267578125,0.8486328125t-0.72509765625,2.3203125q0,1.52001953125,0.70361328125,2.344482421875t2.00341796875,0.824462890625q0.837890625,0,1.88525390625-0.3115234375l0,0.859375q-0.49951171875,0.1826171875-0.96142578125,0.249755859375t-1.0634765625,0.067138671875q-1.73486328125,0-2.672119140625-1.055419921875t-0.937255859375-2.989013671875q0-1.2138671875,0.448486328125-2.126953125t1.30517578125-1.4072265625t2.016845703125-0.494140625q1.24609375,0,2.169921875,0.4619140625l-0.3974609375,0.837890625q-0.93994140625-0.4296875-1.783203125-0.4296875z M21.8388671875,13.19140625l-0.9453125-2.43310546875l-3.115234375,0l-0.9345703125,2.43310546875l-0.9990234375,0l3.06689453125-7.884765625l0.8916015625,0l3.0615234375,7.884765625l-1.02587890625,0z M20.59814453125,9.8828125l-0.880859375-2.37939453125l-0.3759765625-1.17626953125q-0.1611328125,0.64453125-0.33837890625,1.17626953125l-0.8916015625,2.37939453125l2.48681640625,0z M30.16943359375,13.19140625l-1.15478515625,0l-4.20556640625-6.5205078125l-0.04296875,0l0.02685546875,0.43505859375q0.064453125,0.9775390625,0.064453125,1.697265625l0,4.38818359375l-0.9130859375,0l0-7.8525390625l1.14404296875,0l0.24169921875,0.38134765625l2.578125,3.9853515625l1.36962890625,2.13232421875l0.04296875,0q-0.0107421875-0.12890625-0.04296875-0.921142578125t-0.0322265625-1.146728515625l0-4.43115234375l0.923828125,0l0,7.8525390625z  M38.62353515625,13.19140625l-2.5888671875-6.8857421875l-0.04296875,0q0.08056640625,0.859375,0.08056640625,2.12158203125l0,4.76416015625l-0.9130859375,0l0-7.8525390625l1.4609375,0l2.42236328125,6.4345703125l0.04296875,0l2.46533203125-6.4345703125l1.4501953125,0l0,7.8525390625l-0.9775390625,0l0-4.82861328125q0-0.8056640625,0.0751953125-2.04638671875l-0.04296875,0l-2.62109375,6.875l-0.81103515625,0z M49.52685546875,13.19140625l-4.38818359375,0l0-7.8525390625l4.38818359375,0l0,0.8701171875l-3.39990234375,0l0,2.44921875l3.201171875,0l0,0.859375l-3.201171875,0l0,2.8037109375l3.39990234375,0l0,0.8701171875z "/></svg>
</svg>
	
</svg>